<svg width="116" height="122" viewBox="0 0 116 122" fill="none" xmlns="http://www.w3.org/2000/svg">
<path d="M46.4433 62.653C46.4433 60.1663 44.5274 58.1521 42.163 58.1521C39.8004 58.1521 37.8828 60.1663 37.8828 62.653C37.8828 65.1378 39.8004 67.1537 42.163 67.1537C44.5274 67.1537 46.4433 65.1378 46.4433 62.653Z" fill="#57B8E3"/>
<path d="M73.8369 58.1521C71.4743 58.1521 69.5566 60.1663 69.5566 62.653C69.5566 65.1378 71.4743 67.1537 73.8369 67.1537C76.2013 67.1537 78.1171 65.1378 78.1171 62.653C78.1171 60.1663 76.201 58.1521 73.8369 58.1521Z" fill="#57B8E3"/>
<path d="M111.926 55.0068C109.641 52.5978 106.527 51.0337 103.091 50.7749C100.951 40.2024 95.6071 30.8784 88.1353 24.0445C79.9725 16.5742 69.2781 12.0423 57.6071 12.0442C45.9534 12.0423 35.2722 16.5606 27.1134 24.0135C19.6031 30.8665 14.239 40.2336 12.1075 50.8578C8.99136 51.2855 6.18108 52.7874 4.07405 55.0068C1.56192 57.645 -0.00158473 61.3234 1.20537e-06 65.3534C-0.00158473 69.3816 1.56192 73.0633 4.0745 75.6982C6.58232 78.3417 10.0804 79.9851 13.9114 79.9834C14.1828 79.9834 14.4386 79.942 14.7044 79.9248C18.0541 88.3142 23.5303 95.5208 30.4577 100.765C38.0926 106.548 47.4861 109.958 57.6074 109.956C67.7739 109.958 77.2025 106.516 84.8563 100.689C91.7492 95.4412 97.1985 88.2468 100.53 79.8783C101.042 79.9403 101.559 79.9834 102.089 79.9834C105.92 79.9851 109.419 78.3417 111.925 75.6982C114.438 73.0633 116.002 69.3816 116 65.3534C116.002 61.3234 114.438 57.645 111.926 55.0068ZM64.5273 19.4421C64.7568 19.7214 64.9962 20.0371 65.2339 20.4148C66.248 22.0322 67.2702 24.574 67.2761 28.5954C67.277 31.6321 66.6644 35.5347 64.9527 40.4404C59.5479 35.8637 56.4455 31.6457 54.701 28.1711C52.8006 24.3807 52.4571 21.4511 52.4547 19.754C52.4547 19.535 52.4644 19.3575 52.4744 19.1814C54.1582 18.9539 55.8628 18.7968 57.6071 18.7968C59.9709 18.7971 62.2786 19.0299 64.5273 19.4421ZM51.294 30.0628C52.2655 31.9993 53.5936 34.0859 55.3241 36.2638C53.5893 35.5259 51.8495 34.836 50.2151 34.1083C47.422 32.8702 44.9731 31.4872 43.3122 29.6439C42.4759 28.7196 41.8209 27.6866 41.3529 26.4364C40.9691 25.4018 40.7232 24.1913 40.6444 22.7668C43.1654 21.5287 45.8329 20.5751 48.6074 19.906C48.6246 22.1995 49.1362 25.769 51.294 30.0628ZM107.386 70.9232C106.021 72.3544 104.168 73.2286 102.089 73.2322C101.23 73.2303 100.405 73.0702 99.608 72.7771L96.5691 71.6529L95.5124 74.8535C92.7882 83.098 87.6955 90.1923 81.0919 95.2189C74.4851 100.244 66.3919 103.201 57.6076 103.203C48.8618 103.201 40.7998 100.27 34.2087 95.2844C27.6207 90.2991 22.5262 83.2581 19.7741 75.0705L18.7773 72.108L15.8965 72.9408C15.239 73.1288 14.5822 73.2324 13.9116 73.2324C11.8318 73.2289 9.98144 72.3546 8.61481 70.9235C7.25476 69.4869 6.4235 67.5401 6.42191 65.3534C6.4235 63.167 7.25476 61.2197 8.61481 59.7817C9.98144 58.352 11.8318 57.4777 13.9116 57.4761C14.0428 57.4744 14.2381 57.4866 14.5084 57.509L17.4868 57.7556L17.9345 54.6465C19.3881 44.505 24.2766 35.5449 31.322 29.1128C33.0829 27.5075 34.9758 26.0606 36.9818 24.793C37.1558 25.9362 37.4236 27.009 37.7983 27.9952C38.3894 29.5593 39.2191 30.9146 40.2028 32.0717C41.927 34.1031 44.0829 35.5311 46.3334 36.702C49.7166 38.4505 53.3691 39.6593 56.4383 41.1665C57.973 41.9166 59.3551 42.7305 60.4865 43.6686C61.6227 44.612 62.5088 45.6585 63.14 46.9295C63.4794 47.6174 64.1566 48.0382 64.8945 48.0208C65.6308 48.002 66.2899 47.5486 66.5974 46.843C69.9283 39.2557 71.1275 33.2855 71.1293 28.5952C71.1343 25.4187 70.5692 22.8407 69.7717 20.811C75.0375 22.5734 79.8447 25.4118 83.9233 29.1399C90.9721 35.5892 95.8559 44.5753 97.2927 54.7375L97.7658 58.0916L100.952 57.5793C101.377 57.5121 101.752 57.4758 102.089 57.4758C104.168 57.4775 106.02 58.3518 107.385 59.7815C108.746 61.2195 109.577 63.1665 109.58 65.3532C109.578 67.5401 108.746 69.4869 107.386 70.9232Z" fill="#57B8E3"/>
<path d="M69.7451 78.0038C67.0694 81.9026 62.7267 84.3306 57.9997 84.3292C53.2808 84.3309 48.9308 81.9011 46.2526 78.0024C45.5254 76.9451 44.1211 76.7073 43.1161 77.4712C42.1093 78.2368 41.8841 79.713 42.6102 80.7717C46.1174 85.8778 51.8046 89.0558 57.9997 89.0558C64.2023 89.0558 69.8845 85.8776 73.3901 80.7698C74.1164 79.7108 73.8903 78.2349 72.8835 77.471C71.8766 76.7071 70.4715 76.9449 69.7451 78.0038Z" fill="#57B8E3"/>
</svg>
