<svg width="102" height="102" viewBox="0 0 102 102" fill="none" xmlns="http://www.w3.org/2000/svg">
<path d="M76.5001 38.25C79.1761 36.243 81.1527 33.4449 82.1501 30.252C83.1475 27.0592 83.115 23.6335 82.0572 20.4601C80.9994 17.2868 78.97 14.5267 76.2564 12.5708C73.5428 10.615 70.2826 9.5625 66.9376 9.5625H38.2501C34.9051 9.5625 31.6448 10.615 28.9312 12.5708C26.2176 14.5267 24.1882 17.2868 23.1304 20.4601C22.0726 23.6335 22.0401 27.0592 23.0375 30.252C24.0349 33.4449 26.0116 36.243 28.6876 38.25C26.6614 39.7684 25.0262 41.7478 23.9174 44.024C22.8086 46.3003 22.258 48.808 22.3114 51.3394C22.3648 53.8708 23.0205 56.353 24.2242 58.5805C25.428 60.8081 27.1451 62.7167 29.2334 64.1484C26.8581 65.9544 24.983 68.3367 23.7857 71.0699C22.5884 73.803 22.1086 76.7966 22.3916 79.767C22.6746 82.7375 23.7111 85.5865 25.403 88.0444C27.0948 90.5023 29.3861 92.4877 32.0597 93.8126C34.7333 95.1375 37.7009 95.758 40.6814 95.6155C43.6619 95.4729 46.5567 94.572 49.0916 92.9979C51.6266 91.4239 53.7179 89.2289 55.1674 86.6208C56.617 84.0126 57.3768 81.0777 57.3751 78.0938V63.75C60.7566 66.2861 65.0071 67.3751 69.1915 66.7773C73.3759 66.1795 77.1514 63.944 79.6876 60.5625C82.2237 57.181 83.3127 52.9305 82.7149 48.7461C82.1171 44.5617 79.8816 40.7861 76.5001 38.25ZM76.5001 25.5C76.5001 28.0361 75.4926 30.4684 73.6993 32.2617C71.906 34.055 69.4737 35.0625 66.9376 35.0625H57.3751V15.9375H66.9376C69.4737 15.9375 71.906 16.945 73.6993 18.7383C75.4926 20.5316 76.5001 22.9639 76.5001 25.5ZM28.6876 25.5C28.6876 22.9639 29.695 20.5316 31.4883 18.7383C33.2817 16.945 35.7139 15.9375 38.2501 15.9375H51.0001V35.0625H38.2501C35.7139 35.0625 33.2817 34.055 31.4883 32.2617C29.695 30.4684 28.6876 28.0361 28.6876 25.5ZM38.2501 60.5625C35.7139 60.5625 33.2817 59.555 31.4883 57.7617C29.695 55.9684 28.6876 53.5361 28.6876 51C28.6876 48.4639 29.695 46.0316 31.4883 44.2383C33.2817 42.445 35.7139 41.4375 38.2501 41.4375H51.0001V60.5625H38.2501ZM51.0001 78.0938C51.0001 80.3002 50.3458 82.4572 49.1199 84.2918C47.894 86.1265 46.1517 87.5564 44.1131 88.4008C42.0746 89.2452 39.8314 89.4661 37.6673 89.0356C35.5032 88.6052 33.5154 87.5426 31.9552 85.9824C30.3949 84.4222 29.3324 82.4343 28.9019 80.2702C28.4715 78.1061 28.6924 75.863 29.5368 73.8244C30.3812 71.7859 31.8111 70.0435 33.6457 68.8177C35.4804 67.5918 37.6373 66.9375 39.8438 66.9375H51.0001V78.0938ZM66.9376 60.5625C65.0463 60.5625 63.1975 60.0017 61.6249 58.9509C60.0524 57.9002 58.8267 56.4067 58.103 54.6594C57.3792 52.9121 57.1898 50.9894 57.5588 49.1344C57.9278 47.2795 58.8385 45.5756 60.1758 44.2383C61.5132 42.901 63.2171 41.9902 65.072 41.6212C66.9269 41.2523 68.8497 41.4416 70.597 42.1654C72.3443 42.8892 73.8377 44.1148 74.8885 45.6874C75.9392 47.2599 76.5001 49.1087 76.5001 51C76.5001 53.5361 75.4926 55.9684 73.6993 57.7617C71.906 59.555 69.4737 60.5625 66.9376 60.5625Z" fill="#A64E4D"/>
</svg>
