<svg width="102" height="102" viewBox="0 0 102 102" fill="none" xmlns="http://www.w3.org/2000/svg">
<path d="M55.25 46.75C55.25 43.3685 56.5933 40.1255 58.9844 37.7344C61.3755 35.3433 64.6185 34 68 34H80.75C81.8772 34 82.9582 34.4478 83.7552 35.2448C84.5522 36.0418 85 37.1228 85 38.25C85 39.3772 84.5522 40.4582 83.7552 41.2552C82.9582 42.0522 81.8772 42.5 80.75 42.5H68C66.8728 42.5 65.7918 42.9478 64.9948 43.7448C64.1978 44.5418 63.75 45.6228 63.75 46.75V51C63.75 52.1272 64.1978 53.2082 64.9948 54.0052C65.7918 54.8022 66.8728 55.25 68 55.25H72.25C75.6315 55.25 78.8745 56.5933 81.2656 58.9844C83.6567 61.3755 85 64.6185 85 68V72.25C85 75.6315 83.6567 78.8745 81.2656 81.2656C78.8745 83.6567 75.6315 85 72.25 85H59.5C58.3728 85 57.2918 84.5522 56.4948 83.7552C55.6978 82.9582 55.25 81.8772 55.25 80.75C55.25 79.6228 55.6978 78.5418 56.4948 77.7448C57.2918 76.9478 58.3728 76.5 59.5 76.5H72.25C73.3772 76.5 74.4582 76.0522 75.2552 75.2552C76.0522 74.4582 76.5 73.3772 76.5 72.25V68C76.5 66.8728 76.0522 65.7918 75.2552 64.9948C74.4582 64.1978 73.3772 63.75 72.25 63.75H68C64.6185 63.75 61.3755 62.4067 58.9844 60.0156C56.5933 57.6245 55.25 54.3815 55.25 51V46.75ZM51 38.25C51 37.1228 50.5522 36.0418 49.7552 35.2448C48.9582 34.4478 47.8772 34 46.75 34C45.6228 34 44.5418 34.4478 43.7448 35.2448C42.9478 36.0418 42.5 37.1228 42.5 38.25V72.25C42.5 73.3772 42.0522 74.4582 41.2552 75.2552C40.4582 76.0522 39.3772 76.5 38.25 76.5H29.75C28.6228 76.5 27.5418 76.9478 26.7448 77.7448C25.9478 78.5418 25.5 79.6228 25.5 80.75C25.5 81.8772 25.9478 82.9582 26.7448 83.7552C27.5418 84.5522 28.6228 85 29.75 85H38.25C41.6315 85 44.8745 83.6567 47.2656 81.2656C49.6567 78.8745 51 75.6315 51 72.25V38.25ZM0 21.25C0 15.6141 2.23883 10.2091 6.22398 6.22398C10.2091 2.23883 15.6141 0 21.25 0H80.75C86.3858 0 91.7909 2.23883 95.776 6.22398C99.7612 10.2091 102 15.6141 102 21.25V80.75C102 86.3858 99.7612 91.7909 95.776 95.776C91.7909 99.7612 86.3858 102 80.75 102H21.25C15.6141 102 10.2091 99.7612 6.22398 95.776C2.23883 91.7909 0 86.3858 0 80.75V21.25ZM21.25 8.5C17.8685 8.5 14.6255 9.8433 12.2344 12.2344C9.8433 14.6255 8.5 17.8685 8.5 21.25V80.75C8.5 84.1315 9.8433 87.3745 12.2344 89.7656C14.6255 92.1567 17.8685 93.5 21.25 93.5H80.75C84.1315 93.5 87.3745 92.1567 89.7656 89.7656C92.1567 87.3745 93.5 84.1315 93.5 80.75V21.25C93.5 17.8685 92.1567 14.6255 89.7656 12.2344C87.3745 9.8433 84.1315 8.5 80.75 8.5H21.25Z" fill="#A64E4D"/>
</svg>
