<svg width="102" height="102" viewBox="0 0 102 102" fill="none" xmlns="http://www.w3.org/2000/svg">
<path fill-rule="evenodd" clip-rule="evenodd" d="M3.1875 19.7625C3.1875 15.3665 4.93379 11.1506 8.04221 8.04221C11.1506 4.93379 15.3665 3.1875 19.7625 3.1875H82.2375C86.6335 3.1875 90.8494 4.93379 93.9578 8.04221C97.0662 11.1506 98.8125 15.3665 98.8125 19.7625V82.2375C98.8125 86.6335 97.0662 90.8494 93.9578 93.9578C90.8494 97.0662 86.6335 98.8125 82.2375 98.8125H19.7625C15.3665 98.8125 11.1506 97.0662 8.04221 93.9578C4.93379 90.8494 3.1875 86.6335 3.1875 82.2375V19.7625ZM19.7625 9.5625C17.0573 9.5625 14.4629 10.6371 12.55 12.55C10.6371 14.4629 9.5625 17.0573 9.5625 19.7625V82.2375C9.5625 84.9427 10.6371 87.5371 12.55 89.45C14.4629 91.3629 17.0573 92.4375 19.7625 92.4375H82.2375C84.9427 92.4375 87.5371 91.3629 89.45 89.45C91.3629 87.5371 92.4375 84.9427 92.4375 82.2375V19.7625C92.4375 17.0573 91.3629 14.4629 89.45 12.55C87.5371 10.6371 84.9427 9.5625 82.2375 9.5625H19.7625ZM76.1812 49.4445C72.539 48.6242 68.68 47.9783 65.8835 48.1865C64.4683 48.2885 62.662 48.7305 64.481 50.1925C65.9813 51.391 67.7535 52.1432 69.53 52.8913C71.3575 53.6647 73.1935 54.4425 74.749 55.7217C76.9207 57.5068 78.625 60.1077 78.625 63.75C78.625 67.3838 76.908 70.1675 74.171 71.825C71.7527 73.287 68.833 73.7035 66.3042 73.7673C62.2157 73.8693 57.7107 73.0533 54.3532 72.2288V63.4398C57.4472 64.3237 62.2497 65.365 66.0917 65.2673C68.0892 65.2205 69.2665 64.855 69.802 64.532C70.652 64.022 69.8785 62.7215 69.3558 62.2922C67.8597 61.0597 66.062 60.3032 64.2558 59.5425C62.4708 58.7903 60.6772 58.0337 59.1642 56.8225C56.9967 55.08 55.25 52.5088 55.25 48.875C55.25 45.9212 56.4825 43.435 58.735 41.7988C60.741 40.3537 63.172 39.8608 65.2502 39.7078C68.7565 39.4485 72.8025 40.0563 76.1812 40.749V49.4445ZM38.25 29.75H23.375V72.25H31.875V59.5H38.25C42.1951 59.5 45.9786 57.9328 48.7682 55.1432C51.5578 52.3536 53.125 48.5701 53.125 44.625C53.125 40.6799 51.5578 36.8964 48.7682 34.1068C45.9786 31.3172 42.1951 29.75 38.25 29.75ZM38.25 51H31.875V38.25H38.25C39.9408 38.25 41.5623 38.9216 42.7578 40.1172C43.9534 41.3127 44.625 42.9342 44.625 44.625C44.625 46.3158 43.9534 47.9373 42.7578 49.1328C41.5623 50.3284 39.9408 51 38.25 51Z" fill="#A64E4D"/>
</svg>
